<svg width="32" height="32" viewBox="0 0 32 32" fill="none" xmlns="http://www.w3.org/2000/svg">
  <path d="M16 4C14.6667 6 10.4 11.6 10.4 15.2C10.4 18.8 12.8667 21.6 16 21.6C19.1333 21.6 21.6 18.8 21.6 15.2C21.6 11.6 17.3333 6 16 4Z" fill="#0EA5E9"/>
  <path d="M17.0612 8.68138C17.2201 8.9991 17.4008 9.33301 17.6 9.68138C18.0882 10.4943 18.6287 11.3784 19.0849 12.1938C19.2815 12.5481 19.4596 12.8869 19.6137 13.1885C19.8684 13.6959 20.0667 14.1406 20.0667 14.5276C20.0667 15.5959 19.1828 16.4798 18.1145 16.4798C17.0462 16.4798 16.1622 15.5959 16.1622 14.5276C16.1622 13.6406 16.9622 11.4813 17.0612 8.68138Z" fill="#7DD3FC"/>
</svg>